<svg id="Layer_2" data-name="Layer 2" xmlns="http://www.w3.org/2000/svg" viewBox="0 0 2756.08 3582.99">
  <defs>
    <style>
      .cls-1 {
        fill: #f65abe09;
      }

      .cls-2 {
        fill: #f85c5409;
      }

      .cls-3 {
        fill: #fa2a4009;
      }

      .cls-4 {
        fill: #f8521009;
      }

      .cls-5 {
        fill: #ec128c09;
      }

      .cls-6 {
        fill: #8c381009;
      }

      .cls-7 {
        fill: #a2085009;
      }

      .cls-8 {
        fill: #927ebc09;
      }

      .cls-9 {
        fill: #8c10a609;
      }

      .cls-10 {
        fill: #b66c8409;
      }

      .cls-11 {
        fill: #9e628409;
      }

      .cls-12 {
        fill: #9c7e5409;
      }

      .cls-13 {
        fill: #c4386e09;
      }

      .cls-14 {
        fill: #92460e09;
      }

      .cls-15 {
        fill: #d00e0009;
      }

      .cls-16 {
        fill: #aa4e8009;
      }

      .cls-17 {
        fill: #b42c6a09;
      }

      .cls-18 {
        fill: #b4640209;
      }

      .cls-19 {
        fill: #a8660409;
      }

      .cls-20 {
        fill: #b20e1809;
      }

      .cls-21 {
        fill: #da086e09;
      }

      .cls-22 {
        fill: #be94d209;
      }

      .cls-23 {
        fill: #d23a3c09;
      }

      .cls-24 {
        fill: #e01e6409;
      }

      .cls-25 {
        fill: #d84c0609;
      }

      .cls-26 {
        fill: #ae027209;
      }

      .cls-27 {
        fill: #de782009;
      }

      .cls-28 {
        fill: #e42c1e09;
      }

      .cls-29 {
        fill: #d810c409;
      }

      .cls-30 {
        fill: #8a4c1409;
      }

      .cls-31 {
        fill: #a422c809;
      }
    </style>
  </defs>
  <g id="_86" data-name="86">
    <g>
      <path class="cls-24" d="M956.28,2986.45c-185.93-188.71-314.78-348.94-382.99-476.22-60.64-113.16-74.87-203.17-42.29-267.54,22.64-44.72,68.38-78.03,135.96-99.01,57.8-17.94,133.42-27.39,224.77-28.07,167.1-1.29,356.77,26.29,495.24,46.4,106.72,15.5,191.03,27.76,195.11,15.4,1.35-4.09-6.57-14.12-51.99-38.62-67.11-36.2-66.66-37.17-65.77-39.09,1.01-2.17,3.23-1.64,57.76,19.79,81.19,31.91,232.33,91.31,376.42,127.08,176.4,43.79,285.76,37.93,325.02-17.42,61.91-87.29-49.85-297.63-332.2-625.18-194.74-225.92-271.01-360.65-233.18-411.89,58.99-79.89,384.05,62.39,670.85,187.92,206.06,90.19,400.7,175.38,422.69,140.41,22.43-35.68-128.09-190.67-473.71-487.76l1.56-1.81c181.74,156.22,307.69,271.6,385.04,352.72,71.36,74.84,100.52,120.02,89.13,138.12-3.86,6.15-12.33,8.98-24.75,8.98-61.68,0-221.09-69.76-400.92-148.47-144.47-63.23-293.86-128.61-418.56-170.11-142.13-47.3-223.71-53.37-249.41-18.57-36.55,49.51,41.86,187.09,233.06,408.91,283.15,328.49,394.97,539.82,332.34,628.12-39.89,56.23-150.09,62.41-327.54,18.36-144.25-35.81-295.47-95.24-376.72-127.17-24.26-9.53-44.34-17.42-52.12-19.77,8.25,5.51,34.39,19.77,62.13,34.74,50.27,27.12,54.8,36.41,53.12,41.47-4.51,13.64-67.37,5.15-197.72-13.79-138.39-20.1-327.91-47.65-494.87-46.38-91.12,.68-166.51,10.1-224.08,27.96-66.94,20.78-112.2,53.68-134.53,97.81-32.21,63.63-17.99,152.9,42.27,265.34,68.1,127.08,196.82,287.12,382.59,475.67l-1.7,1.68Z"/>
      <path class="cls-20" d="M928.75,2996.86c-180.54-186.15-305.3-344.83-370.83-471.63-58.29-112.78-71.17-203.22-38.3-268.81,22.97-45.83,68.8-80.53,136.23-103.13,57.68-19.33,133-30.38,223.86-32.84,166.25-4.51,354.5,19.8,491.95,37.55,105.83,13.66,189.42,24.46,193.47,11.81,1.94-6.07-15.19-18.81-50.9-37.88-65.95-35.23-65.51-36.21-64.62-38.16,1-2.2,4.22-1.31,56.95,18.89,80,30.64,228.89,87.68,371.28,121.06,174.31,40.87,283.03,32.98,323.13-23.46,63.28-89.08-43.75-299.03-318.14-624.04-189.3-224.24-262.51-358.65-223.82-410.9,60.25-81.34,380.25,55.94,662.57,177.07,202.98,87.09,394.72,169.34,417.11,133.59,22.85-36.44-123.74-189.84-461.31-482.76l1.57-1.8c177.51,154.03,300.41,267.95,375.72,348.27,69.48,74.1,97.63,119.1,86.05,137.57-4.1,6.55-13.11,9.54-26.3,9.55-62.3,0-218.15-66.86-393.78-142.21-142.21-61.01-289.26-124.11-412.3-163.62-140.21-45.04-221.15-49.69-247.41-14.22-37.41,50.52,37.86,187.76,223.72,407.93,275.19,325.95,382.27,536.89,318.27,626.97-40.71,57.3-150.26,65.52-325.62,24.41-142.54-33.42-291.54-90.49-371.59-121.16-24.08-9.22-43.97-16.84-51.51-19,7.93,5.33,33.76,19.29,61.16,33.93,49.26,26.31,53.69,35.58,52.04,40.72-4.45,13.93-66.78,6.52-196.05-10.17-137.38-17.74-325.53-42.03-491.58-37.53-90.63,2.45-165.72,13.46-223.17,32.72-66.81,22.39-112.18,56.69-134.86,101.93-32.51,64.87-19.63,154.58,38.29,266.65,65.42,126.6,190.05,285.08,370.42,471.06l-1.71,1.66Z"/>
      <path class="cls-27" d="M901.2,3007.88c-175.21-183.63-295.93-340.79-358.82-467.14-55.96-112.43-67.53-203.31-34.38-270.13,23.3-46.97,69.25-83.09,136.56-107.34,57.58-20.74,132.63-33.42,223.05-37.66,165.44-7.76,352.4,13.28,488.92,28.65,105,11.83,187.93,21.17,191.93,8.21,1.91-6.17-14.86-18.68-49.82-37.17-64.82-34.28-64.38-35.27-63.49-37.25,1.02-2.24,4.21-1.38,56.24,18.01,78.83,29.38,225.57,84.07,366.28,115.07,172.26,37.95,280.37,28.01,321.32-29.53,64.69-90.9-37.66-300.57-304.21-623.19-183.95-222.65-254.13-356.78-214.55-410.05,61.54-82.83,376.56,49.53,654.48,166.3,200,84.03,388.9,163.39,411.75,126.84,23.27-37.23-119.43-189.11-449.08-477.97l1.57-1.8c173.34,151.9,293.24,264.41,366.53,343.96,67.63,73.4,94.78,118.24,83,137.08-23.92,38.28-205.02-37.81-414.7-125.91-140-58.82-284.76-119.64-406.15-157.19-138.34-42.79-218.64-46.02-245.49-9.89-38.29,51.53,33.87,188.5,214.47,407.11,267.32,323.56,369.71,534.21,304.31,626.1-41.56,58.4-150.5,68.65-323.78,30.48-140.87-31.03-287.71-85.76-366.6-115.17-23.94-8.92-43.68-16.28-50.99-18.25,7.61,5.15,33.12,18.81,60.21,33.14,48.25,25.51,52.59,34.77,50.99,39.98-4.38,14.21-66.23,7.9-194.48-6.54-136.44-15.37-323.3-36.42-488.54-28.65-90.19,4.24-165.01,16.86-222.36,37.52-66.71,24.03-112.21,59.75-135.23,106.15-32.8,66.11-21.23,156.27,34.38,268,62.78,126.13,183.37,283.1,358.41,466.56l-1.73,1.65Z"/>
      <path class="cls-4" d="M873.65,3019.5c-169.95-181.16-286.68-336.86-346.97-462.78-53.67-112.1-63.94-203.45-30.53-271.5,23.64-48.15,69.72-85.72,136.93-111.64,57.51-22.18,132.31-36.49,222.35-42.54,164.71-11.08,350.48,6.72,486.12,19.71,104.23,9.99,186.56,17.87,190.51,4.61,1.87-6.29-14.54-18.55-48.76-36.46-63.73-33.34-63.28-34.34-62.4-36.34,.99-2.27,4.16-1.46,55.43,17.11,77.69,28.14,222.29,80.51,361.4,109.16,170.32,35.07,277.89,23.11,319.71-35.56,66.13-92.76-31.56-302.23-290.39-622.6-178.66-221.16-245.82-355.08-205.32-409.4,62.85-84.33,373.04,43.15,646.7,155.61,197.07,80.99,383.2,157.49,406.5,120.13,23.69-38.03-115.18-188.44-437.05-473.36l1.58-1.79c169.25,149.82,286.19,260.96,357.5,339.77,65.8,72.72,91.97,117.42,79.99,136.64-24.35,39.08-202.81-34.26-409.44-119.18-137.85-56.65-280.38-115.23-400.19-150.82-136.54-40.57-216.24-42.39-243.69-5.57-18.7,25.08-13,69.35,16.92,131.57,32.91,68.44,96.28,160.92,188.35,274.9,259.57,321.31,357.3,531.75,290.47,625.49-42.42,59.51-150.8,71.8-322.14,36.51-139.28-28.68-283.99-81.09-361.73-109.25-23.74-8.59-43.28-15.67-50.37-17.46,7.33,4.99,32.51,18.34,59.26,32.33,36.87,19.29,52.27,31.4,49.94,39.25-4.3,14.48-69.15,8.96-193.03-2.9-135.56-12.99-321.21-30.77-485.73-19.71-89.79,6.04-164.37,20.3-221.65,42.39-66.64,25.7-112.27,62.86-135.64,110.46-33.07,67.36-22.8,158,30.54,269.41,60.18,125.7,176.77,281.2,346.55,462.17l-1.74,1.64Z"/>
      <path class="cls-18" d="M846.09,3031.72c-164.75-178.73-277.55-333-335.26-458.51-51.41-111.8-60.4-203.62-26.74-272.91,23.99-49.37,70.21-88.42,137.37-116.04,57.46-23.64,132.07-39.61,221.76-47.48,164.06-14.4,348.74,.13,483.58,10.74,103.5,8.14,185.25,14.57,189.13,.99,1.82-6.39-14.24-18.42-47.73-35.75-62.65-32.41-62.21-33.43-61.33-35.46,1.02-2.39,5.64-1.01,54.72,16.23,76.58,26.9,219.12,76.98,356.67,103.27,168.4,32.19,275.46,18.19,318.17-41.62,67.61-94.66-25.46-304.02-276.63-622.26-173.45-219.78-237.63-353.55-196.19-408.93,64.21-85.85,369.65,36.79,639.14,145,202.67,81.37,377.71,151.66,401.44,113.45,24.13-38.84-110.97-187.85-425.17-468.92l1.59-1.78c165.21,147.8,279.24,257.61,348.59,335.72,64,72.07,89.19,116.64,77.01,136.25-24.77,39.91-200.69-30.71-404.36-112.49-135.74-54.5-276.1-110.86-394.36-144.51-134.77-38.36-213.92-38.77-241.98-1.27-19.14,25.59-14.39,70.1,14.15,132.27,31.38,68.38,92.62,160.48,182,273.75,251.91,319.18,345.01,529.5,276.71,625.13-43.31,60.63-151.16,74.96-320.56,42.58-137.72-26.33-280.38-76.44-357.02-103.36-23.59-8.29-42.97-15.1-49.84-16.7,7.03,4.82,31.91,17.87,58.34,31.55,36.11,18.68,51.21,30.57,48.94,38.53-4.22,14.77-68.6,10.41-191.62,.73-134.76-10.6-319.31-25.13-483.18-10.74-89.45,7.85-163.82,23.77-221.06,47.31-66.6,27.39-112.4,66.04-136.13,114.88-33.34,68.62-24.34,159.75,26.76,270.86,57.61,125.28,170.27,279.34,334.85,457.89l-1.76,1.62Z"/>
      <path class="cls-22" d="M818.47,3044.56c-159.62-176.36-268.53-329.22-323.72-454.35-49.18-111.52-56.92-203.82-23.01-274.36,24.34-50.63,70.72-91.19,137.85-120.54,57.44-25.12,131.88-42.78,221.27-52.49,163.5-17.76,347.17-6.52,481.27,1.7,102.82,6.3,184.04,11.27,187.84-2.64,1.78-6.5-13.94-18.29-46.73-35.06-61.59-31.49-61.12-32.59-60.28-34.59,1.01-2.39,6.06-.95,54.01,15.36,75.5,25.68,216.03,73.48,352.08,97.43,166.57,29.33,273.15,13.28,316.78-47.68,69.13-96.6-19.36-305.94-262.99-622.2-168.31-218.49-229.51-352.15-187.12-408.63,65.61-87.39,366.41,30.47,631.81,134.46,199.8,78.28,372.35,145.89,396.55,106.82,24.56-39.68-106.82-187.33-413.47-464.67l1.61-1.77c161.24,145.83,272.4,254.36,339.82,331.79,62.23,71.45,86.45,115.91,74.07,135.92-5.22,8.43-16.77,12.21-33.59,12.21-64.52,0-206.57-55.65-365.86-118.06-264.61-103.67-564.53-221.18-629.03-135.25-19.6,26.12-15.78,70.88,11.38,133.03,29.87,68.36,88.99,160.11,175.72,272.71,244.36,317.19,332.86,527.49,263.04,625.05-44.21,61.78-151.58,78.16-319.14,48.65-136.23-23.99-276.87-71.82-352.43-97.52-23.42-7.96-42.64-14.5-49.29-15.92,6.74,4.67,31.31,17.41,57.42,30.76,35.36,18.09,50.15,29.75,47.95,37.81-4.32,15.78-78.31,11.25-190.3,4.39-134.02-8.2-317.56-19.44-480.87-1.71-89.14,9.68-163.35,27.28-220.57,52.3-66.59,29.12-112.57,69.28-136.66,119.39-33.6,69.88-25.84,161.51,23.04,272.36,55.08,124.89,163.86,277.54,323.3,453.71l-1.77,1.61Z"/>
      <path class="cls-11" d="M790.82,3058c-154.55-174.02-259.62-325.51-312.32-450.28-46.99-111.25-53.49-204.06-19.35-275.84,24.7-51.93,71.27-94.04,138.41-125.15,57.45-26.63,131.77-45.99,220.9-57.56,163.03-21.16,345.79-13.21,479.23-7.4,102.17,4.45,182.89,7.96,186.61-6.27,1.72-6.59-13.66-18.15-45.74-34.35-60.56-30.59-60.09-31.71-59.25-33.74,.99-2.43,5.97-1.08,53.38,14.5,74.45,24.46,213.03,70,347.61,91.62,164.75,26.47,270.9,8.39,315.45-53.76,70.68-98.59-13.25-307.99-249.44-622.41-163.23-217.29-221.48-350.92-178.1-408.51,67-88.93,363.29,24.17,624.72,123.97,197.02,75.22,367.18,140.17,391.82,100.22,25.01-40.53-102.71-186.89-401.92-460.61l1.61-1.76c300.21,274.63,428.06,421.95,402.35,463.63-5.54,8.98-17.85,12.99-35.73,12.99-65,0-203.68-52.94-358.98-112.23-260.63-99.5-556.03-212.27-621.96-124.77-20.08,26.66-17.19,71.69,8.59,133.84,28.36,68.36,85.39,159.8,169.51,271.79,236.9,315.35,320.83,525.7,249.47,625.23-45.12,62.94-152.02,81.36-317.77,54.73-134.76-21.65-273.46-67.22-347.97-91.71-23.3-7.66-42.39-13.93-48.82-15.17,6.45,4.52,30.72,16.97,56.53,30,34.62,17.49,49.11,28.93,46.97,37.09-4.21,16.09-77.74,12.9-189.03,8.06-133.35-5.8-315.99-13.74-478.82,7.38-191.78,24.89-312.05,85.91-357.46,181.37-33.84,71.14-27.32,163.29,19.39,273.89,52.59,124.52,157.53,275.79,311.9,449.62l-1.79,1.59Z"/>
      <path class="cls-28" d="M763.11,3072.05c-149.54-171.72-250.83-321.88-301.06-446.29-44.82-111.01-50.12-204.32-15.74-277.35,25.07-53.26,71.84-96.96,139.02-129.87,57.49-28.16,131.72-49.26,220.64-62.71,162.64-24.59,344.58-19.96,477.42-16.57,101.6,2.59,181.84,4.63,185.46-9.92,1.67-6.69-13.4-18.01-44.77-33.66-59.54-29.7-59.08-30.83-58.25-32.89,.99-2.46,5.93-1.18,52.71,13.64,73.43,23.26,210.1,66.55,343.27,85.85,163.05,23.65,268.8,3.51,314.29-59.84,72.27-100.61-7.12-310.18-235.96-622.88-158.21-216.2-213.53-349.84-169.13-408.57,68.44-90.52,360.34,17.91,617.87,113.56,194.3,72.17,362.1,134.49,387.22,93.64,25.45-41.4-98.65-186.52-390.56-456.71l1.62-1.75c292.89,271.1,417.12,417.18,390.97,459.72-5.88,9.57-19,13.82-38.01,13.82-65.43,0-200.76-50.26-352.09-106.47-256.75-95.37-547.78-203.47-615.13-114.36-20.57,27.2-18.62,72.53,5.8,134.72,26.85,68.4,81.81,159.57,163.35,271,229.52,313.63,308.92,524.14,235.98,625.69-46.06,64.12-152.57,84.59-316.58,60.81-133.36-19.33-270.16-62.66-343.65-85.94-23.11-7.32-42.02-13.31-48.28-14.4,7.41,5.19,39.41,21.15,55.61,29.23,33.89,16.9,48.08,28.12,46.02,36.38-4.09,16.41-77.2,14.55-187.84,11.74-132.76-3.39-314.58-8.01-477.01,16.55-191.35,28.93-311.75,93.27-357.86,191.22-34.08,72.4-28.76,165.08,15.8,275.44,50.13,124.17,151.29,274.09,300.65,445.62l-1.8,1.57Z"/>
      <path class="cls-9" d="M735.34,3086.74c-144.59-169.47-242.15-318.31-289.96-442.39-42.69-110.78-46.8-204.61-12.21-278.88,25.44-54.64,72.44-99.96,139.69-134.7,57.55-29.73,131.74-52.59,220.49-67.93,162.33-28.08,343.56-26.78,475.88-25.84,105.02,.76,180.89,1.29,184.41-13.59,1.6-6.78-13.14-17.87-43.82-32.98-58.56-28.81-58.1-29.96-57.28-32.05,.99-2.49,5.84-1.3,52.04,12.77,72.43,22.06,207.24,63.13,339.05,80.14,161.4,20.81,266.8-1.36,313.27-65.92,73.9-102.68-.97-312.5-222.54-623.63-153.26-215.21-205.67-348.93-160.22-408.82,69.88-92.11,357.48,11.66,611.22,103.21,191.67,69.16,357.21,128.89,382.81,87.11,25.9-42.28-94.63-186.23-379.33-453l1.64-1.74c285.67,267.68,406.33,412.58,379.73,456-26.62,43.45-193-16.59-385.66-86.11-252.97-91.27-539.67-194.73-608.51-104.02-21.06,27.76-20.05,73.4,3.01,135.65,25.36,68.46,78.27,159.42,157.26,270.34,222.23,312.05,297.1,522.81,222.53,626.41-47.02,65.33-153.18,87.83-315.51,66.89-132.01-17.03-266.95-58.14-339.45-80.22-22.95-6.99-41.7-12.71-47.75-13.62,7.1,5.02,38.75,20.6,54.74,28.46,33.16,16.32,47.07,27.32,45.09,35.67-3.96,16.74-76.69,16.22-186.75,15.43-132.23-.95-313.33-2.24-475.46,25.8-191.02,33.04-311.62,100.76-358.43,201.29-34.3,73.67-30.17,166.86,12.27,277.01,47.72,123.82,145.13,272.43,289.55,441.69l-1.82,1.55Z"/>
      <path class="cls-16" d="M707.48,3102.04c-139.7-167.25-233.57-314.8-279-438.55-40.59-110.56-43.52-204.91-8.73-280.42,25.83-56.06,73.08-103.05,140.44-139.64,57.65-31.32,131.83-55.97,220.47-73.25,162.12-31.6,342.72-33.66,474.59-35.17,104.49-1.19,179.99-2.06,183.4-17.27,1.54-6.86-12.9-17.73-42.9-32.28-55.14-26.76-57.17-29.02-56.32-31.23,.97-2.53,5.79-1.41,51.47,11.93,71.46,20.87,204.48,59.73,334.97,74.43,159.78,17.99,264.85-6.23,312.29-72.03,75.57-104.8,5.18-314.97-209.22-624.66-148.36-214.3-197.86-348.17-151.34-409.25,71.39-93.72,354.79,5.44,604.83,92.92,189.12,66.18,352.46,123.32,378.54,80.59,26.35-43.19-90.66-186.01-368.26-449.46l1.64-1.73c278.56,264.36,395.7,408.12,368.66,452.43-6.64,10.89-21.55,15.65-43.05,15.65-66.15,0-194.85-45.03-338.32-95.23-249.27-87.22-531.8-186.07-602.14-93.73-21.58,28.33-21.52,74.31,.19,136.65,23.87,68.56,74.75,159.33,151.22,269.79,215.04,310.61,285.42,521.7,209.2,627.41-47.99,66.55-153.81,91.1-314.5,73-130.7-14.72-263.84-53.62-335.38-74.52-22.85-6.67-41.48-12.12-47.33-12.87,6.77,4.86,38.1,20.06,53.89,27.73,32.44,15.74,46.07,26.52,44.19,34.96-3.82,17.06-76.18,17.88-185.7,19.13-131.77,1.51-312.25,3.57-474.16,35.13-190.81,37.19-311.66,108.37-359.2,211.54-34.52,74.92-31.55,168.65,8.81,278.6,45.33,123.49,139.07,270.81,278.59,437.84l-1.83,1.53Z"/>
      <path class="cls-3" d="M679.55,3118c-134.88-165.08-225.12-311.37-268.2-434.81-38.52-110.36-40.31-205.24-5.32-281.99,26.22-57.52,73.74-106.21,141.24-144.71,57.77-32.95,131.97-59.41,220.54-78.64,161.98-35.18,342.04-40.63,473.52-44.61,104.04-3.15,179.21-5.43,182.49-20.98,1.47-6.95-12.66-17.58-41.99-31.6-54.23-25.93-56.23-28.17-55.38-30.42,.95-2.54,6.19-1.4,50.89,11.08,70.53,19.7,201.8,56.36,331.02,68.77,158.24,15.2,263.03-11.1,311.47-78.14,77.28-106.96,11.35-317.56-195.95-625.93-143.52-213.51-190.14-347.59-142.51-409.88,72.9-95.36,352.21-.77,598.65,82.68,186.66,63.21,347.85,117.8,374.43,74.09,26.82-44.12-86.74-185.86-357.35-446.09l1.66-1.72c271.55,261.13,385.22,403.82,357.73,449.05-7.06,11.62-22.96,16.66-45.84,16.66-66.44,0-191.83-42.46-331.39-89.73-245.67-83.2-524.12-177.49-595.98-83.49-22.11,28.92-23,75.25-2.64,137.71,22.39,68.69,71.25,159.33,145.23,269.39,207.92,309.29,273.83,520.8,195.9,628.66-48.97,67.78-154.5,94.4-313.64,79.12-129.44-12.43-260.84-49.13-331.44-68.85-22.72-6.35-41.23-11.52-46.88-12.11,6.47,4.71,37.46,19.52,53.05,26.98,31.31,14.97,45.07,25.85,43.3,34.25-3.67,17.39-75.71,19.57-184.76,22.87-131.38,3.98-311.32,9.43-473.08,44.56-190.68,41.41-311.84,116.1-360.12,222-34.72,76.17-32.91,170.45,5.4,280.21,42.99,123.18,133.09,269.23,267.8,434.09l-1.85,1.51Z"/>
      <path class="cls-13" d="M651.51,3134.59c-130.13-162.94-216.78-307.99-257.54-431.13-36.47-110.17-37.13-205.57-1.96-283.55,26.63-59.03,74.44-109.46,142.12-149.9,57.92-34.61,132.19-62.91,220.74-84.13,161.93-38.81,341.56-47.68,472.72-54.17,103.65-5.12,178.53-8.83,181.67-24.71,1.39-7.02-12.44-17.43-41.1-30.93-53.34-25.12-55.31-27.33-54.48-29.61,.94-2.57,6.1-1.52,50.29,10.24,69.6,18.53,199.16,53.02,327.18,63.15,156.75,12.41,261.32-15.94,310.79-84.26,79.04-109.18,17.56-320.3-182.71-627.51-138.74-212.81-182.47-347.15-133.71-410.69,74.45-97.01,349.77-6.95,592.68,72.51,184.26,60.27,343.39,112.32,370.46,67.61,27.28-45.05-82.85-185.78-346.58-442.87l1.67-1.71c264.66,258,374.9,399.66,346.95,445.82-7.51,12.4-24.47,17.73-48.82,17.73-66.66,0-188.76-39.94-324.42-84.31-242.15-79.21-516.63-168.99-590.05-73.32-22.65,29.51-24.49,76.22-5.48,138.82,20.91,68.86,67.78,159.39,139.3,269.1,200.87,308.12,262.32,520.16,182.65,630.21-49.98,69.04-155.27,97.73-312.91,85.25-128.23-10.15-257.93-44.68-327.61-63.23-22.58-6.01-40.95-10.9-46.4-11.33,6.17,4.56,36.83,19,52.22,26.24,30.62,14.42,44.1,25.08,42.43,33.55-3.51,17.71-75.27,21.26-183.9,26.63-131.06,6.48-310.56,15.35-472.28,54.11-190.66,45.69-312.19,123.98-361.23,232.69-34.92,77.41-34.23,172.23,2.05,281.81,40.68,122.87,127.19,267.68,257.14,430.39l-1.87,1.49Z"/>
      <path class="cls-21" d="M623.37,3151.84c-125.44-160.84-208.56-304.68-247.05-427.53-34.46-109.99-34.01-205.92,1.34-285.11,27.04-60.58,75.18-112.8,143.06-155.21,58.1-36.3,132.47-66.49,221.05-89.73,161.97-42.49,341.25-54.83,472.16-63.83,103.29-7.11,177.92-12.25,180.92-28.46,1.31-7.09-12.23-17.27-40.24-30.25-52.47-24.31-54.41-26.5-53.58-28.82,.94-2.61,6.05-1.65,49.76,9.4,68.72,17.37,196.62,49.69,323.46,57.55,155.33,9.61,259.69-20.79,310.18-90.4,80.84-111.44,23.79-323.19-169.56-629.37-134-212.21-174.86-346.87-124.93-411.68,76.02-98.68,347.46-13.11,586.93,62.38,181.95,57.36,339.09,106.89,366.67,61.15,27.75-46.02-79-185.79-335.93-439.84l1.68-1.7c257.84,254.96,364.71,395.66,336.3,442.78-28.55,47.35-186.52-2.45-369.43-60.11-238.72-75.25-509.31-160.55-584.32-63.2-23.21,30.12-26.02,77.23-8.34,140.01,19.44,69.05,64.32,159.53,133.41,268.94,193.92,307.09,250.93,519.74,169.47,632.05-51.01,70.31-156.07,101.06-312.27,91.38-127.07-7.87-255.11-40.24-323.9-57.62-22.48-5.68-40.73-10.29-45.99-10.57,5.88,4.42,36.21,18.47,51.4,25.51,29.94,13.87,43.15,24.31,41.58,32.85-3.33,18.04-74.85,22.96-183.1,30.41-130.81,9-309.96,21.33-471.72,63.76-190.74,50.04-312.71,132-362.53,243.6-35.11,78.64-35.52,174-1.24,283.42,38.41,122.57,121.39,266.16,246.65,426.77l-1.88,1.47Z"/>
      <path class="cls-8" d="M595.1,3169.77c-120.8-158.78-200.44-301.43-236.69-423.99-32.48-109.83-30.94-206.27,4.59-286.67,27.47-62.17,75.95-116.22,144.09-160.66,58.32-38.03,132.84-70.13,221.49-95.42,162.1-46.23,341.13-62.07,471.85-73.63,102.99-9.11,177.4-15.69,180.23-32.24,1.22-7.16-12.02-17.1-39.38-29.57-51.51-23.46-53.5-25.75-52.72-28.04,.95-2.75,7.68-1.36,49.21,8.56,67.85,16.21,194.14,46.39,319.86,51.98,153.95,6.86,258.17-25.64,309.72-96.57,82.68-113.76,30.06-326.23-156.41-631.51-129.32-211.71-167.33-346.76-116.2-412.87,77.62-100.36,345.25-19.25,581.38,52.31,179.73,54.46,334.93,101.5,363.03,54.7,28.22-47.01-75.19-185.86-325.43-436.98l1.69-1.69c251.14,252.02,354.66,391.8,325.79,439.9-8.49,14.14-27.84,20.11-55.46,20.11-66.91,0-182.43-35.01-310.31-73.76-235.39-71.33-502.17-152.19-578.8-53.13-23.78,30.74-27.55,78.27-11.22,141.25,17.97,69.28,60.89,159.75,127.56,268.91,187.02,306.19,239.61,519.55,156.3,634.16-52.05,71.62-156.95,104.46-311.76,97.55-125.95-5.6-252.39-35.81-320.31-52.04-22.36-5.34-40.48-9.67-45.55-9.8,5.6,4.29,35.61,17.95,50.6,24.78,29.27,13.33,42.22,23.55,40.75,32.14-3.15,18.37-74.45,24.67-182.38,34.22-130.63,11.55-309.53,27.38-471.41,73.55-190.93,54.46-313.41,140.17-364.04,254.75-35.29,79.86-36.8,175.76-4.48,285.02,36.17,122.28,115.67,264.67,236.29,423.22l-1.9,1.45Z"/>
      <path class="cls-12" d="M566.69,3188.31c-116.24-156.74-192.44-298.21-226.48-420.48-30.53-109.66-27.91-206.62,7.78-288.2,27.92-63.81,76.77-119.74,145.19-166.23,58.56-39.79,133.27-73.85,222.04-101.22,162.31-50.04,341.19-69.41,471.81-83.56,102.74-11.13,176.98-19.16,179.64-36.05,1.14-7.21-11.83-16.93-38.55-28.89-50.69-22.68-52.64-24.95-51.87-27.27,.93-2.8,7.59-1.52,48.68,7.72,67.01,15.07,191.73,43.11,316.38,46.45,152.65,4.14,256.73-30.48,309.36-102.74,84.57-116.12,36.35-329.41-143.32-633.94-124.67-211.32-159.82-346.82-107.45-414.25,79.25-102.06,343.18-25.38,576.05,42.27,177.56,51.59,330.91,96.14,359.53,48.26,28.7-48.01-71.42-186.01-315.07-434.29l1.71-1.67c244.53,249.18,344.76,388.1,315.41,437.19-9.03,15.11-29.71,21.43-59.15,21.43-66.91,0-179.13-32.6-303.1-68.62-232.14-67.44-495.23-143.88-573.49-43.1-24.37,31.38-29.12,79.35-14.12,142.57,16.5,69.54,57.46,160.04,121.74,269.01,180.2,305.43,228.38,519.6,143.2,636.56-53.12,72.93-157.86,107.86-311.35,103.72-124.88-3.34-249.75-31.42-316.83-46.5-22.19-4.99-40.17-9.03-45.09-9.03h-.03c5.34,4.16,35.02,17.44,49.82,24.06,28.61,12.81,41.3,22.79,39.94,31.44-2.95,18.69-74.08,26.39-181.74,38.05-130.52,14.13-309.27,33.49-471.36,83.46-191.23,58.96-314.28,148.49-365.74,266.12-35.46,81.06-38.04,177.49-7.67,286.6,33.96,121.99,110.03,263.19,226.1,419.7l-1.92,1.43Z"/>
      <path class="cls-19" d="M538.12,3207.56c-111.74-154.76-184.55-295.08-216.42-417.07-28.6-109.5-24.92-206.98,10.93-289.73,28.38-65.5,77.63-123.35,146.38-171.95,58.84-41.59,133.78-77.64,222.72-107.12,162.62-53.91,341.43-76.86,472-93.62,102.53-13.16,176.61-22.67,179.09-39.88,1.05-7.26-11.65-16.75-37.74-28.2-49.87-21.9-51.8-24.15-51.04-26.5,.9-2.82,8.12-1.54,48.19,6.89,66.19,13.93,189.39,39.85,313.01,40.93,151.33,1.25,255.38-35.33,309.1-108.93,86.51-118.54,42.69-332.74-130.25-636.65-120.08-211.02-152.38-347.05-98.74-415.85,80.9-103.78,341.24-31.49,570.93,32.29,175.48,48.73,327.02,90.81,356.17,41.82,29.18-49.03-67.69-186.22-304.85-431.73l1.72-1.66c238.02,246.41,335,384.51,305.18,434.61-30.09,50.56-182.45,8.25-358.86-40.74-228.96-63.58-488.47-135.65-568.41-33.13-24.97,32.03-30.71,80.47-17.04,143.95,15.03,69.83,54.05,160.42,115.98,269.24,173.44,304.8,217.21,519.87,130.1,639.24-54.19,74.26-158.93,111.12-311.05,109.91-123.85-1.08-247.2-27.04-313.48-40.98-22.14-4.66-40.04-8.41-44.73-8.26,5.07,4.04,34.43,16.93,49.04,23.35,27.96,12.28,40.39,22.04,39.14,30.73-2.74,19.01-73.71,28.12-181.15,41.91-130.47,16.75-309.15,39.68-471.55,93.52-191.63,63.53-315.33,156.98-367.66,277.75-35.64,82.25-39.27,179.2-10.81,288.18,31.79,121.7,104.47,261.76,216.04,416.27l-1.94,1.4Z"/>
      <path class="cls-2" d="M509.43,3227.48c-107.32-152.8-176.8-291.99-206.52-413.71-26.71-109.35-21.98-207.34,14.03-291.24,28.86-67.23,78.54-127.05,147.66-177.8,59.15-43.43,134.36-81.5,223.53-113.15,163.02-57.85,341.86-84.43,472.45-103.84,102.37-15.21,176.33-26.2,178.61-43.73,.95-7.29-11.48-16.55-36.94-27.51-49.07-21.13-50.97-23.36-50.24-25.74,.89-2.87,8.03-1.71,47.71,6.06,65.4,12.79,187.05,36.6,309.75,35.44,150.18-1.43,254.13-40.18,308.95-115.15,88.5-121.03,49.06-336.25-117.2-639.68-115.52-210.82-144.97-347.43-90.03-417.62,82.58-105.51,339.39-37.58,565.97,22.36,173.47,45.89,323.29,85.52,352.99,35.38,29.67-50.08-63.98-186.51-294.72-429.35l1.73-1.65c231.59,243.74,325.34,381.08,295.04,432.21-30.62,51.69-181.24,11.85-355.65-34.29-225.86-59.75-481.86-127.48-563.48-23.19-25.6,32.7-32.32,81.62-19.98,145.4,13.57,70.16,50.65,160.87,110.23,269.6,166.75,304.32,206.12,520.4,117.03,642.24-55.29,75.62-159.88,114.7-310.86,116.13-122.95,1.13-244.75-22.67-310.24-35.48-22.04-4.31-39.82-7.79-44.35-7.49,4.82,3.92,33.86,16.43,48.28,22.64,27.31,11.76,39.5,21.29,38.36,30.02-2.52,19.32-73.37,29.85-180.63,45.79-130.49,19.39-309.21,45.95-472,103.73-192.15,68.19-316.56,165.64-369.79,289.64-35.81,83.41-40.49,180.89-13.91,289.73,29.65,121.42,99.01,260.34,206.16,412.9l-1.95,1.38Z"/>
      <path class="cls-17" d="M480.54,3248.08c-102.95-150.88-169.16-288.96-196.77-410.4-24.83-109.2-19.08-207.69,17.1-292.71,29.36-69,79.5-130.83,149.02-183.78,59.5-45.31,135.02-85.44,224.45-119.29,163.5-61.86,342.47-92.12,473.15-114.21,102.28-17.29,176.17-29.79,178.25-47.64,.85-7.33-11.31-16.35-36.16-26.83-48.3-20.37-50.18-22.58-49.46-25,.86-2.9,7.92-1.87,47.23,5.22,64.63,11.67,184.92,33.39,306.6,29.98,149.03-4.18,252.97-45.02,308.92-121.39,90.53-123.57,55.49-339.9-104.16-642.98-111.01-210.74-137.61-348-81.33-419.62,84.29-107.27,337.67-43.66,561.23,12.46,171.54,43.06,319.68,80.26,349.93,28.94,30.15-51.14-60.32-186.86-284.73-427.12l1.75-1.63c225.24,241.15,315.81,377.78,285.04,429.97-31.16,52.85-180.11,15.46-352.57-27.84-222.85-55.95-475.44-119.36-558.76-13.31-26.23,33.38-33.96,82.82-22.96,146.92,12.1,70.53,47.27,161.4,104.53,270.11,160.11,303.96,195.09,521.14,103.97,645.51-56.41,77-160.98,118.17-310.78,122.36-121.89,3.4-242.38-18.33-307.09-30.01-21.93-3.96-39.62-7.17-43.96-6.72,4.57,3.82,33.3,15.93,47.54,21.94,26.68,11.25,38.63,20.56,37.61,29.31-2.28,19.64-73.07,31.61-180.23,49.72-130.58,22.08-309.42,52.31-472.7,114.1-192.76,72.93-317.96,174.46-372.12,301.77-76.14,178.94-15.76,414.74,179.45,700.83l-1.97,1.34Z"/>
      <path class="cls-30" d="M451.48,3269.39c-98.67-149-161.64-285.99-187.18-407.15-22.99-109.06-16.22-208.03,20.12-294.16,29.88-70.82,80.51-134.72,150.48-189.91,59.88-47.23,135.75-89.47,225.51-125.55,164.07-65.95,343.25-99.94,474.08-124.76,102.22-19.39,176.07-33.4,177.93-51.57,.75-7.35-11.16-16.14-35.4-26.14-47.44-19.57-49.37-21.88-48.69-24.26,.84-2.95,7.84-2.03,46.79,4.39,63.89,10.55,182.78,30.17,303.58,24.53,147.93-6.92,251.89-49.87,308.99-127.65,92.61-126.16,61.95-343.7-91.14-646.57-106.52-210.76-130.28-348.74-72.63-421.82,86.01-109.04,336.06-49.73,556.67,2.61,169.68,40.25,316.23,75.02,347.04,22.49,30.65-52.23-56.69-187.29-274.86-425.05l1.76-1.62c218.98,238.65,306.41,374.61,275.16,427.87-31.71,54.04-179.05,19.09-349.65-21.38-219.92-52.17-469.18-111.29-554.24-3.45-57.02,72.28-33.17,209.43,72.89,419.27,153.52,303.74,184.11,522.11,90.93,649.06-57.55,78.4-162.12,121.67-310.8,128.63-121.03,5.64-240.11-14-304.08-24.56-21.85-3.61-39.45-6.51-43.61-5.95,4.33,3.72,32.75,15.44,46.81,21.24,26.05,10.75,37.76,19.83,36.86,28.6-2.04,19.94-72.78,33.36-179.86,53.68-130.74,24.8-309.79,58.77-473.64,124.63-193.48,77.77-319.54,183.48-374.68,314.17-76.45,181.21-20.31,416.41,166.85,699.07l-1.99,1.32Z"/>
      <path class="cls-26" d="M422.24,3291.4c-94.45-147.16-154.25-283.07-177.74-403.95-21.17-108.91-13.4-208.36,23.11-295.58,30.42-72.69,81.57-138.69,152.03-196.16,60.29-49.19,136.56-93.58,226.68-131.93,164.72-70.11,344.21-107.89,475.26-135.48,102.23-21.52,176.08-37.07,177.71-55.55,.65-7.36-11.01-15.93-34.65-25.46-44.34-17.88-48.66-20.9-47.94-23.53,.81-2.98,7.76-2.2,46.36,3.57,63.17,9.43,180.75,26.96,300.66,19.1,146.88-9.66,250.9-54.72,309.16-133.94,94.74-128.83,68.47-347.68-78.1-650.47-102.07-210.88-122.98-349.66-63.91-424.25,87.76-110.83,334.56-55.78,552.31-7.2,167.88,37.45,312.88,69.79,344.27,16.04,31.14-53.33-53.1-187.78-265.11-423.13l1.77-1.6c212.81,236.23,297.14,371.58,265.4,425.94-32.27,55.27-178.06,22.75-346.86-14.91-217.07-48.42-463.09-103.3-549.92,6.36-58.44,73.8-37.44,211.75,64.19,421.72,146.98,303.66,173.18,523.33,77.87,652.93-58.69,79.81-163.31,125.2-310.93,134.91-120.17,7.9-237.91-9.68-301.16-19.12-21.77-3.25-39.29-5.85-43.27-5.17,4.11,3.62,32.21,14.96,46.09,20.55,25.43,10.25,36.91,19.11,36.14,27.88-1.78,20.25-72.52,35.14-179.6,57.68-130.96,27.57-310.31,65.33-474.82,135.35-194.31,82.7-321.3,192.66-377.44,326.82-76.76,183.41-24.8,418.03,154.44,697.32l-2.01,1.29Z"/>
      <path class="cls-15" d="M392.79,3314.15c-90.3-145.37-146.98-280.24-168.46-400.84-19.37-108.78-10.6-208.69,26.07-296.97,30.99-74.6,82.7-142.75,153.7-202.57,60.75-51.18,137.46-97.76,228-138.44,165.48-74.35,345.35-115.98,476.69-146.38,102.26-23.67,176.15-40.77,177.54-59.55,.54-7.36-10.87-15.69-33.91-24.76-43.65-17.18-47.91-20.14-47.22-22.8,.78-3.01,8.24-2.29,45.95,2.74,62.47,8.32,178.74,23.81,297.84,13.7,145.89-12.39,250-59.58,309.44-140.25,96.93-131.56,75.03-351.83-65.07-654.7-97.65-211.1-115.71-350.73-55.2-426.86,89.53-112.64,333.16-61.82,548.12-16.98,166.19,34.66,309.71,64.6,341.69,9.56,31.64-54.46-49.54-188.36-255.47-421.38l1.79-1.58c206.71,233.91,287.97,368.69,255.74,424.16-32.84,56.53-177.15,26.43-344.24-8.42-214.27-44.69-457.15-95.35-545.76,16.13-59.89,75.36-41.74,214.17,55.5,424.37,140.5,303.72,162.31,524.81,64.83,657.12-59.86,81.25-164.56,128.77-311.16,141.22-119.36,10.14-235.8-5.37-298.36-13.71-21.69-2.89-39.11-5.2-42.94-4.39,3.89,3.53,31.69,14.47,45.39,19.87,24.81,9.76,36.07,18.39,35.42,27.16-1.52,20.54-72.27,36.91-179.38,61.7-131.24,30.38-310.98,71.98-476.25,146.23-195.24,87.73-323.25,202.03-380.47,339.75-77.09,185.57-29.25,419.62,142.21,695.63l-2.03,1.26Z"/>
      <path class="cls-23" d="M363.12,3337.59c-86.23-143.61-139.84-277.43-159.34-397.76-17.6-108.63-7.85-209,29-298.31,31.58-76.55,83.89-146.9,155.46-209.11,61.24-53.22,138.43-102.04,229.44-145.08,166.32-78.67,346.67-124.22,478.36-157.48,102.36-25.85,176.31-44.53,177.44-63.6,.44-7.35-10.73-15.45-33.19-24.06-42.97-16.48-47.17-19.38-46.51-22.08,.75-3.05,8.15-2.46,45.54,1.91,61.79,7.22,176.8,20.67,295.13,8.31,144.95-15.12,249.19-64.44,309.83-146.59,99.16-134.35,81.66-356.15-52.03-659.23-93.26-211.43-108.46-351.99-46.46-429.7,91.32-114.46,331.88-67.85,544.13-26.72,164.55,31.88,306.66,59.43,339.23,3.07,32.14-55.6-46.01-188.98-245.94-419.75l1.8-1.57c200.69,231.64,278.92,365.9,246.2,422.51-33.43,57.82-176.31,30.13-341.76-1.92-211.58-41-451.39-87.47-541.8,25.86-61.39,76.95-46.09,216.71,46.77,427.25,134.06,303.92,151.48,526.52,51.77,661.61-61.05,82.71-165.86,132.36-311.5,147.55-118.59,12.37-233.77-1.08-295.66-8.32-21.61-2.52-38.94-4.55-42.6-3.61,3.75,3.48,32.22,14.4,44.69,19.18,24.21,9.29,35.25,17.69,34.73,26.44-1.24,20.82-72.05,38.7-179.25,65.77-131.59,33.24-311.81,78.75-477.92,157.32-196.29,92.85-325.39,211.6-383.71,352.95-77.43,187.66-33.63,421.12,130.17,693.92l-2.05,1.23Z"/>
      <path class="cls-7" d="M333.22,3361.79c-82.23-141.89-132.83-274.71-150.37-394.77-15.86-108.5-5.12-209.31,31.92-299.63,32.21-78.54,85.14-151.14,157.33-215.78,61.76-55.3,139.48-106.39,231-151.85,167.24-83.07,348.15-132.6,480.25-168.76,102.51-28.06,176.57-48.33,177.44-67.69,.33-7.34-10.6-15.2-32.5-23.38-42.31-15.79-46.45-18.64-45.82-21.36,.72-3.1,8.06-2.64,45.16,1.08,61.14,6.12,174.93,17.52,292.54,2.96,144.06-17.84,248.47-69.3,310.32-152.96,101.45-137.21,88.34-360.64-38.97-664.08-88.89-211.87-101.22-353.43-37.69-432.76,93.13-116.31,330.71-73.87,540.32-36.43,162.99,29.11,303.74,54.25,336.92-3.44,32.65-56.77-42.51-189.68-236.52-418.27l1.82-1.55c194.75,229.47,269.99,363.24,236.77,421.01-34.01,59.15-175.54,33.87-339.41,4.6-208.95-37.33-445.8-79.63-538.04,35.57-62.93,78.59-50.49,219.36,38.03,430.35,127.66,304.27,140.68,528.49,38.69,666.42-62.26,84.2-167.21,135.98-311.95,153.91-117.86,14.59-231.84,3.18-293.07-2.95-21.53-2.16-38.79-3.88-42.29-2.84,3.55,3.4,31.7,13.91,44.02,18.5,23.62,8.82,34.44,16.99,34.05,25.72-.95,21.09-71.86,40.51-179.2,69.89-132,36.14-312.78,85.62-479.81,168.59-197.43,98.07-327.7,221.34-387.18,366.4-77.79,189.69-37.98,422.61,118.31,692.29l-2.07,1.2Z"/>
      <path class="cls-14" d="M303.11,3386.72c-78.32-140.22-125.95-272.05-141.57-391.83-14.13-108.37-2.42-209.61,34.81-300.9,32.86-80.58,86.47-155.47,159.32-222.59,62.33-57.42,140.62-110.83,232.7-158.75,168.26-87.56,349.82-141.12,482.38-180.24,102.69-30.3,176.89-52.19,177.49-71.81,.22-7.31-10.48-14.94-31.81-22.68-41.47-15.05-45.73-17.97-45.14-20.67,.69-3.14,7.98-2.82,44.85,.25,123.96,10.28,453.23,37.62,600.9-161.78,103.78-140.15,95.08-365.3-25.88-669.21-84.54-212.41-94-355.04-28.91-436.05,94.95-118.17,329.61-79.89,536.66-46.11,161.5,26.35,300.97,49.09,334.77-9.99,33.16-57.96-39.04-190.45-227.2-416.95l1.84-1.53c188.89,227.37,261.16,360.73,227.44,419.67-34.63,60.52-174.85,37.65-337.23,11.16-206.4-33.67-440.34-71.83-534.42,45.25-64.5,80.28-54.93,222.13,29.27,433.67,121.28,304.73,129.89,530.66,25.58,671.52-63.47,85.7-168.59,139.64-312.44,160.3-117.17,16.83-229.97,7.47-290.58,2.44-21.51-1.79-38.72-3.22-42.05-2.05,3.34,3.32,31.19,13.43,43.36,17.84,23.04,8.36,33.65,16.3,33.38,25-.65,21.35-71.68,42.31-179.2,74.03-256.01,75.53-732.54,216.13-872.87,560.19-78.17,191.66-42.29,424.03,106.64,690.66l-2.09,1.16Z"/>
      <path class="cls-10" d="M272.72,3412.39c-74.48-138.59-119.2-269.46-132.93-388.97-12.43-108.24,.25-209.89,37.7-302.14,62.2-153.23,195.43-286.24,395.99-395.34,169.37-92.13,351.66-149.81,484.76-191.93,102.92-32.57,177.28-56.1,177.6-75.97,.12-7.27-10.36-14.66-31.13-21.97-40.84-14.37-45.05-17.23-44.49-19.97,.65-3.19,7.89-2.99,44.5-.59,122.7,8.05,448.63,29.45,599.21-173.57,106.18-143.15,101.88-370.15-12.77-674.69-80.21-213.06-86.79-356.84-20.1-439.55,96.78-120.05,328.64-85.89,533.19-55.75,160.08,23.59,298.32,43.96,332.77-16.56,33.67-59.17-35.59-191.28-217.99-415.77l1.85-1.51c183.1,225.36,252.43,358.32,218.21,418.46-35.25,61.93-174.24,41.45-335.19,17.74-203.92-30.05-435.06-64.1-530.98,54.89-66.11,82-59.41,225.01,20.47,437.21,114.95,305.35,119.14,533.11,12.45,676.95-64.7,87.24-170.04,143.34-313.08,166.74-116.52,19.06-228.2,11.73-288.2,7.79-20.61-1.36-38.53-2.54-41.77-1.26,3.16,3.26,30.7,12.95,42.71,17.17,22.47,7.9,32.87,15.61,32.73,24.26-.34,21.6-71.52,44.12-179.27,78.21-257.2,81.38-735.95,232.87-879.26,585.88-78.58,193.57-46.57,425.41,95.12,689.07l-2.11,1.13Z"/>
      <path class="cls-5" d="M242.07,3438.85c-134.94-261.45-163.16-493.44-83.87-689.53,63.54-157.15,198.18-294.95,400.17-409.57,170.56-96.79,353.66-158.65,487.36-203.82,103.23-34.88,177.81-60.08,177.83-80.2,0-7.23-10.24-14.38-30.47-21.28-40.22-13.7-44.38-16.5-43.85-19.26,.61-3.23,7.79-3.16,44.14-1.42,121.48,5.84,444.19,21.35,597.74-185.35,108.62-146.23,108.76-375.18,.4-680.48-75.89-213.82-79.56-358.83-11.23-443.3,98.64-121.95,327.74-91.9,529.88-65.38,158.73,20.83,295.82,38.81,330.9-23.17,34.19-60.4-32.17-192.18-208.85-414.74l1.87-1.49c177.36,223.41,243.79,356.04,209.06,417.4-35.88,63.38-173.71,45.3-333.29,24.36-201.51-26.43-429.91-56.4-527.71,64.51-67.76,83.78-63.96,228.03,11.63,441,108.64,306.1,108.39,535.79-.73,682.71-65.96,88.8-171.55,147.07-313.85,173.2-115.92,21.29-226.51,15.96-285.92,13.11-20.54-.99-38.39-1.84-41.47-.48,2.98,3.19,30.22,12.47,42.07,16.51,21.9,7.46,32.1,14.94,32.09,23.54-.03,21.84-71.41,45.96-179.46,82.46-258.5,87.34-739.66,249.91-886.08,612.03-79.02,195.42-50.83,426.74,83.78,687.54l-2.13,1.1Z"/>
      <path class="cls-6" d="M211.15,3466.09c-127.98-258.65-152.43-490.13-72.66-688.01,64.95-161.14,201.1-303.83,404.65-424.09,171.85-101.53,355.84-167.65,490.18-215.93,103.54-37.21,178.36-64.1,178.08-84.45-.1-7.17-10.13-14.09-29.83-20.57-39.62-13.04-43.73-15.78-43.23-18.58,.6-3.41,9.58-3.29,43.83-2.26,120.31,3.61,439.92,13.24,596.44-197.2,111.12-149.4,115.7-380.41,13.61-686.62-71.59-214.68-72.36-360.98-2.36-447.27,100.5-123.88,326.95-97.9,526.75-74.97,157.45,18.07,293.44,33.67,329.2-29.82,34.71-61.65-28.79-193.14-199.84-413.83l1.89-1.46c171.72,221.54,235.28,353.88,200.03,416.47-36.53,64.87-173.24,49.18-331.55,31.02-199.18-22.86-424.94-48.76-524.62,74.1-69.45,85.6-68.54,231.16,2.77,445,102.36,306.99,97.66,538.74-13.96,688.8-67.23,90.38-173.1,150.85-314.68,179.71-115.35,23.52-224.9,20.22-283.75,18.45-20.5-.62-38.32-1.15-41.23,.32,2.81,3.13,29.75,12,41.45,15.85,21.36,7.03,31.35,14.27,31.47,22.81,.3,22.05-71.29,47.78-179.67,86.73-259.91,93.4-743.72,267.27-893.42,638.67-79.5,197.22-55.07,428.04,72.59,686.06l-2.14,1.06Z"/>
      <path class="cls-29" d="M179.94,3494.1c-121.16-255.96-141.89-486.95-61.62-686.56,66.44-165.2,204.18-312.85,409.39-438.86,173.22-106.36,358.18-176.81,493.23-228.25,103.93-39.59,179.02-68.19,178.43-88.75-.2-7.1-10.02-13.79-29.19-19.87-39.03-12.39-43.09-15.07-42.64-17.89,.56-3.46,9.5-3.49,43.53-3.09,119.19,1.4,435.8,5.18,595.34-209.05,113.68-152.64,122.71-385.82,26.86-693.07-67.29-215.66-65.13-363.34,6.58-451.49,102.39-125.84,326.26-103.9,523.79-84.54,156.24,15.31,291.2,28.53,327.62-36.5,35.24-62.91-25.42-194.16-190.91-413.05l1.9-1.44c166.13,219.74,226.85,351.82,191.09,415.66-37.19,66.4-172.86,53.11-329.94,37.72-196.93-19.3-420.13-41.17-521.7,83.67-71.18,87.47-73.19,234.43-6.16,449.26,96.1,308.02,86.94,541.93-27.22,695.21-68.51,91.99-174.7,154.65-315.61,186.25-114.82,25.75-223.36,24.45-281.67,23.77-20.47-.25-38.23-.45-41,1.11,2.65,3.08,29.29,11.53,40.85,15.2,20.81,6.6,30.62,13.62,30.86,22.08,.63,22.26-71.22,49.62-179.97,91.05-261.45,99.58-748.1,284.95-901.26,665.77-80.02,198.96-59.31,429.31,61.56,684.65l-2.16,1.02Z"/>
      <path class="cls-1" d="M148.43,3522.92c-114.49-253.36-131.56-483.88-50.72-685.16,157.16-391.35,647.47-588.68,910.89-694.7,104.36-42,179.77-72.35,178.87-93.11-.3-7.02-9.92-13.47-28.57-19.17-38.45-11.73-42.46-14.36-42.05-17.21,.51-3.49,10.09-3.71,43.26-3.93,118.11-.79,431.86-2.87,594.45-220.96,116.27-155.96,129.77-391.43,40.12-699.86-62.99-216.73-57.89-365.86,15.58-455.92,104.28-127.82,325.67-109.91,521-94.1,155.11,12.55,289.09,23.38,326.21-43.25,35.77-64.2-22.09-195.26-182.08-412.44l1.92-1.42c160.62,218.02,218.53,349.9,182.25,415.02-37.87,67.98-172.55,57.09-328.5,44.47-194.75-15.75-415.47-33.6-518.95,93.23-72.94,89.4-77.89,237.82-15.14,453.74,89.87,309.19,76.25,545.36-40.5,701.96-69.8,93.63-176.34,158.51-316.64,192.84-114.34,27.98-221.92,28.69-279.71,29.08-20.44,.13-38.17,.25-40.78,1.91,2.5,3.03,28.84,11.07,40.25,14.55,20.01,6.11,29.91,13.09,30.26,21.35,.97,22.45-71.17,51.48-180.36,95.42-263.08,105.88-752.78,302.97-909.56,693.37-80.58,200.65-63.53,430.54,50.69,683.29l-2.18,.98Z"/>
      <path class="cls-25" d="M116.61,3552.55c-107.97-250.87-121.41-480.96-39.97-683.87,160.97-401.06,654.52-610.32,919.67-722.74,104.83-44.44,180.57-76.56,179.35-97.49-.4-6.94-9.81-13.15-27.96-18.46-36.19-10.6-41.87-13.55-41.49-16.53,.46-3.53,10-3.94,43-4.77,117.08-2.98,428.07-10.89,593.75-232.89,118.93-159.36,136.93-397.22,53.49-706.98-58.69-217.93-50.64-368.6,24.62-460.62,106.17-129.82,325.15-115.91,518.35-103.65,154.05,9.78,287.11,18.23,324.95-50.05,36.31-65.51-18.77-196.4-173.32-411.93l1.94-1.39c155.15,216.37,210.28,348.07,173.47,414.49-38.57,69.6-172.31,61.11-327.19,51.28-192.62-12.23-410.95-26.1-516.35,102.77-74.74,91.38-82.65,241.35-24.16,458.48,83.64,310.5,65.51,549.05-53.88,709.03-71.12,95.29-178.03,162.41-317.76,199.47-113.89,30.21-220.54,32.92-277.84,34.38-20.41,.52-38.12,.97-40.58,2.72,2.35,2.98,28.41,10.61,39.68,13.9,19.49,5.71,29.2,12.45,29.67,20.62,1.31,22.61-71.14,53.33-180.81,99.83-264.83,112.29-757.79,321.3-918.39,721.43-81.2,202.3-67.76,431.77,39.95,682.04l-2.19,.95Z"/>
      <path class="cls-31" d="M84.46,3582.99C1.41,3379.84-20.53,3188.65,19.25,3014.74c7.4-32.35,16.97-64.26,28.7-95.7-66.76,181.39-68.96,399.64,38.72,663.04l-2.21,.9Zm171.13-981.5c220.48-226.11,538.33-367.72,728.47-452.43,105.34-46.93,181.45-80.84,179.91-101.93-.5-6.84-9.71-12.81-27.36-17.76-35.67-9.99-41.28-12.86-40.94-15.86,.41-3.58,9.9-4.16,42.76-5.63,116.09-5.17,424.45-18.9,593.26-244.9,121.64-162.86,144.15-403.23,66.92-714.43-54.41-219.21-43.38-371.49,33.71-465.53,108.08-131.85,324.72-121.93,515.88-113.17,153.08,7.01,285.27,13.07,323.84-56.9,36.85-66.84-15.48-197.62-164.68-411.58l1.96-1.37c149.77,214.79,202.14,346.37,164.81,414.1-39.29,71.27-172.19,65.18-326.04,58.14-190.59-8.73-406.6-18.62-513.92,112.3-76.57,93.42-87.45,245.01-33.23,463.44,77.42,311.94,54.76,552.98-67.32,716.44-72.45,96.99-179.77,166.36-318.98,206.17-113.48,32.45-219.26,37.16-276.09,39.69-20.4,.91-38.1,1.7-40.4,3.53,2.22,2.94,27.98,10.15,39.11,13.27,18.99,5.31,28.51,11.82,29.1,19.89,1.67,22.76-71.13,55.19-181.32,104.29-201.75,89.88-511.5,227.87-729.45,450.25Z"/>
    </g>
  </g>
</svg>