<svg width="120" height="120" viewBox="0 0 120 120" fill="none" xmlns="http://www.w3.org/2000/svg">
<path d="M76.6721 47.1083V47.1132L70.9491 64.5698C68.3317 57.2668 61.8677 37.604 61.8677 37.604C61.6838 36.9881 61.4407 36.2728 61.1365 35.4597C60.8411 34.6797 60.4906 34.2711 60.0797 34.2475H60.0451C59.5396 34.2682 59.3107 34.6976 59.0225 35.4597C58.7183 36.2728 58.4752 36.9881 58.2913 37.604C58.2913 37.604 51.6873 57.6994 49.1258 64.8061L43.3778 47.4411L45.3244 41.6384L49.5194 29.1532C50.6732 25.7526 52.0314 23.381 53.588 22.0298C55.0641 20.7503 57.0675 20.0733 59.6149 20.009C59.7525 20 59.8954 20 60.0362 20H60.1228C60.2636 20 60.4041 20 60.5425 20.009C63.0915 20.0733 65.0949 20.7503 66.5718 22.0298C68.1276 23.381 69.4826 25.7526 70.6412 29.1532L76.6721 47.1083Z" fill="#FAD20B"/>
<path d="M48.7722 74.3734C48.7722 77.4835 46.2859 80.0001 43.2165 80.0001C41.4104 80.0001 39.8079 79.1313 38.797 77.7797C38.1257 76.8917 28.6753 48.1446 28.6753 48.1446C28.4914 47.5291 28.2455 46.8138 27.9413 46.0003C27.6491 45.2218 27.2962 44.8145 26.8849 44.7913C26.3561 44.7913 26.1251 45.2218 25.8277 46.0003C25.5234 46.8138 25.2808 47.5291 25.0968 48.1446C25.0968 48.1446 15.6464 76.8917 14.9756 77.7797C13.9647 79.1313 12.3618 80.0001 10.5556 80.0001C7.48625 80.0001 5 77.4835 5 74.3734C5 74.1245 5.01449 73.8765 5.04909 73.6304C5.09457 73.2756 5.17546 72.9326 5.2809 72.6043H5.27527L6.7349 68.2501L12.13 52.1794L16.325 39.6921C17.4812 36.2948 18.837 33.9199 20.3964 32.572C21.8685 31.2892 23.873 30.6151 26.4229 30.5475C26.5605 30.5405 26.701 30.5405 26.8442 30.5405H26.9283C27.0688 30.5405 27.2121 30.5405 27.3509 30.5475C29.8963 30.6151 31.9004 31.2892 33.3774 32.572C34.9328 33.9199 36.291 36.2948 37.4472 39.6921L48.4969 72.6043H48.4884C48.5947 72.9326 48.6756 73.2756 48.7202 73.6304C48.7581 73.8765 48.7722 74.1245 48.7722 74.3734Z" fill="#0D5A99"/>
<path d="M115 74.3734C115 77.4835 112.514 80.0001 109.443 80.0001C107.636 80.0001 106.036 79.1313 105.025 77.7797C104.353 76.8917 94.9029 48.1446 94.9029 48.1446C94.719 47.5291 94.4715 46.8138 94.1705 46.0003C93.8751 45.2218 93.5214 44.8145 93.1117 44.7913C92.5837 44.7913 92.3503 45.2218 92.0545 46.0003C91.7535 46.8138 91.506 47.5291 91.322 48.1446C91.322 48.1446 81.8728 76.8917 81.2008 77.7797C80.1899 79.1313 78.5886 80.0001 76.7832 80.0001C73.713 80.0001 71.2256 77.4835 71.2256 74.3734C71.2256 74.1245 71.2405 73.8765 71.2751 73.6304C71.3214 73.2756 71.4006 72.9326 71.5085 72.6043H71.5021L72.9601 68.2501L78.3584 52.1794L82.5501 39.6921C83.7071 36.2948 85.0621 33.9199 86.6216 32.572C88.0949 31.2892 90.099 30.6151 92.6489 30.5475C92.7865 30.5405 92.9278 30.5405 93.0718 30.5405H93.1543C93.2988 30.5405 93.4389 30.5405 93.5765 30.5475C96.1239 30.6151 98.1305 31.2892 99.6034 32.572C101.16 33.9199 102.518 36.2948 103.675 39.6921L114.725 72.6043H114.714C114.821 72.9326 114.904 73.2756 114.95 73.6304C114.985 73.8765 115 74.1245 115 74.3734Z" fill="#0D5A99"/>
<path d="M34.9773 99.6478C34.9773 99.7269 34.9717 99.7986 34.9601 99.8691C34.9469 99.9368 34.9036 100.003 34.8288 100.07C34.7552 100.131 34.6691 100.168 34.5787 100.174C34.4834 100.177 34.4074 100.18 34.3442 100.18H31.2999C31.1662 100.18 31.0326 100.151 30.9009 100.088C30.768 100.023 30.6668 99.9527 30.5916 99.8777C30.4547 99.7387 30.3726 99.5552 30.3406 99.3281C30.3094 99.0973 30.2946 98.9098 30.2946 98.7544C30.2946 98.3875 30.3234 98.129 30.3867 97.9781C30.4487 97.824 30.5007 97.7213 30.5351 97.6731C30.6604 97.5105 30.8089 97.4106 30.9745 97.3784C31.1426 97.3457 31.2655 97.3298 31.3403 97.3298H34.9773V99.6478ZM36.957 93.114C36.819 92.7144 36.6445 92.4066 36.4344 92.1925C36.2115 91.9503 35.9177 91.7611 35.558 91.6217C35.1978 91.4826 34.8076 91.4121 34.381 91.4121H30.7832C29.7896 91.4121 28.9612 92.1248 28.7643 93.0773V93.1225H33.635C33.8063 93.1225 33.9924 93.149 34.1869 93.2016C34.3786 93.2501 34.5499 93.3704 34.6983 93.5625C34.8232 93.7137 34.9008 93.8707 34.9313 94.0362C34.9633 94.1993 34.9773 94.3591 34.9773 94.5133V95.6194H30.6776C30.4187 95.6194 30.1321 95.6484 29.8184 95.703C29.501 95.7617 29.1877 95.9305 28.8767 96.209C28.5021 96.5376 28.2676 96.9193 28.1764 97.3502C28.0819 97.7804 28.0371 98.2158 28.0371 98.6619C28.0371 98.8511 28.0427 99.0667 28.0527 99.3073C28.0683 99.5495 28.1019 99.7958 28.1568 100.049C28.214 100.302 28.2992 100.547 28.4185 100.78C28.5366 101.018 28.697 101.222 28.8971 101.399C29.1817 101.652 29.481 101.801 29.7984 101.835C30.1177 101.876 30.4127 101.894 30.686 101.894H35.4095C35.6424 101.894 35.8861 101.873 36.1362 101.828C36.386 101.783 36.5977 101.672 36.771 101.494C36.9446 101.317 37.0539 101.103 37.0971 100.846C37.1383 100.595 37.1619 100.378 37.1619 100.201V94.5691C37.1619 93.9983 37.0939 93.5127 36.957 93.114Z" fill="#0D5A99"/>
<path d="M45.7595 97.9064L43.6133 101.495L43.396 101.857H44.7691C44.8067 101.857 44.8411 101.854 44.8771 101.854C45.2029 101.837 45.5094 101.741 45.7776 101.59C45.8276 101.561 45.8768 101.529 45.9284 101.495C46.2362 101.28 46.4855 100.987 46.6444 100.638L47.8926 98.0985C47.3119 97.811 46.7708 97.4563 46.277 97.0425L45.7595 97.9064ZM52.3159 101.495L50.6227 98.9009C49.6999 98.7998 48.8266 98.5445 48.0206 98.1601L49.3269 100.726C49.6574 101.368 50.3001 101.813 51.0513 101.854H51.0589C51.0933 101.854 51.1277 101.857 51.1598 101.857H52.552L52.3159 101.495Z" fill="#0D5A99"/>
<path d="M46.6678 100.658L46.0715 101.877H44.7925C44.8301 101.877 44.8645 101.874 44.9005 101.874C45.2263 101.857 45.5328 101.762 45.801 101.61C45.851 101.581 45.9026 101.549 45.9518 101.515C46.2596 101.301 46.5093 101.007 46.6678 100.658Z" fill="#0D5A99"/>
<path d="M51.0468 101.908H49.7889L49.2139 100.777C49.5444 101.419 50.1899 101.864 50.9383 101.905H50.9483C50.9803 101.905 51.0147 101.908 51.0468 101.908Z" fill="#0D5A99"/>
<path d="M61.0124 91.4121V96.1022C60.6154 96.0373 60.2072 96.0068 59.7898 96.0068C59.4413 96.0068 59.0943 96.0284 58.7573 96.0757V91.4121H61.0124Z" fill="#0D5A99"/>
<path d="M61.0124 96.7829V101.891H58.7573V96.7564C59.0943 96.7107 59.4413 96.6875 59.7898 96.6875C60.2072 96.6875 60.6154 96.7213 61.0124 96.7829Z" fill="#0D5A99"/>
<path d="M97.2872 93.5347C97.2816 93.4381 97.27 93.337 97.2528 93.2444C97.2168 93.052 97.1592 92.8718 97.0755 92.703L96.9675 92.5077C96.8134 92.2614 96.6081 92.0473 96.3672 91.8859C96.0906 91.6967 95.7653 91.5748 95.4167 91.5426C95.3519 91.534 95.2887 91.5308 95.2254 91.5308H95.0337V99.3293C95.0337 99.4337 95.0281 99.5393 95.0149 99.6433C95.0025 99.7489 94.9461 99.8532 94.844 99.9544C94.7 100.101 94.4835 100.173 94.1857 100.173H92.3168C91.905 100.173 91.5476 100.136 91.2451 100.057C90.9425 99.978 90.6912 99.7958 90.4839 99.5067C90.3423 99.3089 90.243 99.0712 90.1854 98.7883C90.1281 98.5094 90.1009 98.1396 90.1009 97.6805V93.6358C90.1009 93.6008 90.0977 93.5702 90.0977 93.5347C90.0921 93.4381 90.0805 93.337 90.0601 93.2444C90.0257 93.052 89.9665 92.8718 89.8836 92.703L89.778 92.5077C89.6211 92.2614 89.4186 92.0473 89.1777 91.8859C88.9012 91.6967 88.5758 91.5748 88.2244 91.5426C88.1608 91.534 88.096 91.5308 88.0327 91.5308H87.8442V98.0915C87.8442 98.734 87.9107 99.3089 88.0443 99.821C88.1812 100.333 88.4617 100.779 88.8871 101.157C89.2325 101.46 89.6155 101.662 90.0313 101.776C90.4495 101.886 90.9545 101.942 91.5444 101.942H95.1518C95.4199 101.942 95.6989 101.922 95.9914 101.884C96.2767 101.844 96.5329 101.735 96.7534 101.549C97.0067 101.339 97.1624 101.087 97.2136 100.791C97.2644 100.499 97.2904 100.258 97.2904 100.078V93.6358C97.2904 93.6008 97.2904 93.5702 97.2872 93.5347Z" fill="#0D5A99"/>
<path d="M90.1444 91.5308V93.6358C90.1444 93.6008 90.1412 93.5702 90.1412 93.5347C90.136 93.4381 90.124 93.337 90.1036 93.2444C90.0695 93.052 90.0099 92.8718 89.9271 92.703L89.8214 92.5077C89.6645 92.2614 89.462 92.0474 89.2211 91.8859C88.9446 91.6967 88.6192 91.5748 88.2679 91.5426C88.2042 91.534 88.1394 91.5308 88.0762 91.5308H90.1444Z" fill="#0D5A99"/>
<path d="M114.973 98.2683C114.951 98.0485 114.915 97.812 114.855 97.5731C114.797 97.3325 114.712 97.0875 114.596 96.8469C114.481 96.6019 114.32 96.3834 114.113 96.1881C113.906 95.9899 113.647 95.8138 113.333 95.6556C113.016 95.4986 112.636 95.3477 112.185 95.205L108.671 94.0711L107.247 93.6137C106.71 93.4318 106.366 93.2011 106.221 92.9242C106.071 92.6514 105.997 92.364 105.997 92.0615C105.997 91.9322 106.012 91.7606 106.044 91.5522C106.077 91.3426 106.178 91.1592 106.344 90.9993C106.498 90.857 106.669 90.769 106.855 90.7368C107.04 90.7029 107.223 90.6866 107.402 90.6866H112.388C112.403 90.6866 112.417 90.6854 112.43 90.6825C112.725 90.656 113.002 90.568 113.248 90.4261C113.299 90.3963 113.347 90.3657 113.399 90.3303C113.922 89.9694 114.276 89.3668 114.301 88.6774C114.305 88.661 114.305 88.6419 114.305 88.626H106.538C106.486 88.626 106.437 88.6284 106.39 88.6284C104.912 88.7067 103.709 89.8333 103.491 91.2868C103.489 91.2929 103.489 91.2986 103.489 91.3015C103.468 91.4849 103.457 91.6684 103.453 91.8458V91.944C103.453 92.1393 103.457 92.3518 103.471 92.5736C103.482 92.7978 103.517 93.0241 103.567 93.2512C103.616 93.4799 103.691 93.7046 103.779 93.9288C103.87 94.1519 103.99 94.3557 104.145 94.5364C104.273 94.708 104.421 94.8503 104.59 94.969C104.756 95.0864 104.915 95.1903 105.072 95.2727C105.227 95.3591 105.364 95.4236 105.486 95.4709C105.609 95.5161 105.696 95.5455 105.743 95.5602L109.838 96.8718L111.066 97.2681C111.363 97.3574 111.598 97.4687 111.772 97.5906C111.942 97.7166 112.077 97.8475 112.165 97.9841C112.257 98.1235 112.313 98.2626 112.339 98.4049C112.365 98.5512 112.38 98.6878 112.38 98.8187C112.38 98.9373 112.368 99.0813 112.348 99.2513C112.328 99.4213 112.279 99.5868 112.194 99.7442C112.112 99.9012 111.985 100.035 111.819 100.146C111.651 100.256 111.415 100.313 111.107 100.313H105.403C105.376 100.313 105.341 100.316 105.31 100.319H105.307C104.964 100.351 104.642 100.468 104.371 100.654C104.362 100.656 104.354 100.662 104.345 100.669C104.074 100.855 103.848 101.108 103.691 101.402C103.593 101.577 103.523 101.772 103.479 101.972C103.453 102.097 103.436 102.228 103.436 102.358C103.436 102.361 103.434 102.367 103.436 102.373H111.917C112.733 102.37 113.479 102.045 114.03 101.515C114.447 101.112 114.756 100.594 114.903 100.008V99.9962C114.954 99.6765 114.989 99.363 114.997 99.0548C114.997 98.9842 115 98.9108 115 98.8391C115 98.6821 114.992 98.4929 114.973 98.2683Z" fill="#0D5A99"/>
<path d="M21.8106 90.3731V102.499C21.7862 102.501 21.7661 102.499 21.7457 102.499C20.9125 102.461 20.181 102.018 19.7384 101.355C19.6987 101.293 19.6579 101.23 19.6219 101.166C19.4538 100.855 19.3446 100.508 19.3142 100.14C19.3142 100.127 19.311 100.112 19.311 100.102C19.3086 100.102 19.3086 100.102 19.311 100.099L19.3142 99.6766V99.6742L19.343 91.9677L19.3446 91.7696C19.3446 91.5865 19.3142 91.4703 19.2561 91.4234C19.1993 91.381 19.1513 91.3545 19.1141 91.3545C19.0476 91.3545 18.9812 91.4116 18.9192 91.5262C18.8535 91.6363 18.8115 91.73 18.7855 91.8079L16.9034 96.8058L16.901 96.8193L15.6896 99.9013L15.678 99.9261L15.3326 100.849C15.231 101.111 15.1309 101.343 15.0329 101.547C14.9392 101.751 14.8188 101.926 14.6759 102.068C14.5366 102.213 14.3625 102.322 14.156 102.391C13.9519 102.464 13.6994 102.499 13.4065 102.499C13.0835 102.499 12.817 102.455 12.6037 102.361C12.3928 102.272 12.2183 102.15 12.0754 101.998C11.933 101.847 11.8181 101.675 11.7277 101.48C11.6376 101.283 11.5556 101.073 11.4751 100.849L11.1194 99.9013L9.91039 96.8193L8.02667 91.8079C8.00066 91.73 7.95464 91.6363 7.89301 91.5262C7.82657 91.4116 7.76014 91.3545 7.69811 91.3545C7.59446 91.3545 7.53563 91.4177 7.51522 91.5437C7.49521 91.6685 7.48401 91.7431 7.48401 91.7696L7.48641 91.9677L7.50362 98.4869V100.084C7.50122 100.102 7.49801 100.121 7.49521 100.14C7.4636 100.508 7.35594 100.855 7.18386 101.166C7.14944 101.23 7.11063 101.293 7.07061 101.355C6.62959 102.018 5.89564 102.461 5.06323 102.499C5.03922 102.499 5.02041 102.501 5 102.499V90.3731C5 89.9283 5.09405 89.585 5.28534 89.3448C5.48223 89.0998 5.69954 88.9196 5.94446 88.803C6.18818 88.6859 6.42669 88.617 6.66721 88.5967C6.90332 88.5759 7.07381 88.5669 7.17826 88.5669C7.56445 88.5669 7.8866 88.6142 8.14913 88.7035C8.41486 88.7977 8.63457 88.9249 8.80585 89.088C8.97993 89.2507 9.1224 89.4398 9.23886 89.6572C9.35452 89.8741 9.45937 90.0971 9.54821 90.3364L13.0375 99.3773C13.1039 99.5225 13.1628 99.6415 13.2236 99.7386C13.2808 99.8368 13.3401 99.8866 13.4065 99.8866C13.4697 99.8866 13.5317 99.8368 13.5886 99.7386C13.645 99.6415 13.7082 99.5225 13.7715 99.3773L17.2608 90.3364C17.4028 89.943 17.5601 89.6294 17.7314 89.4019C17.9055 89.1716 18.0948 88.9954 18.3017 88.8723C18.5074 88.7475 18.7191 88.6639 18.9364 88.626C19.1569 88.5877 19.3874 88.5669 19.6339 88.5669C20.2614 88.5669 20.7813 88.7125 21.1947 89.0015C21.6065 89.2861 21.8106 89.7452 21.8106 90.3731Z" fill="#0D5A99"/>
<path d="M68.1334 98.9782C68.558 98.9782 68.9782 98.946 69.3872 98.8804V99.8838C69.3592 100.57 69.0075 101.173 68.482 101.533C68.4344 101.568 68.3828 101.6 68.3303 101.632C68.063 101.783 67.7561 101.876 67.4323 101.893C67.3947 101.893 67.3603 101.896 67.323 101.896H67.1313V98.9171C67.4595 98.9578 67.7933 98.9782 68.1334 98.9782Z" fill="#0D5A99"/>
<path d="M75.669 94.3755V101.898H73.4155V97.1627C74.3496 96.4145 75.1236 95.4641 75.669 94.3755Z" fill="#0D5A99"/>
<path d="M81.6123 94.6164V101.906H81.4206C81.3886 101.906 81.3557 101.903 81.3269 101.903H81.3153C81.2865 101.903 81.2581 101.9 81.2309 101.894C80.8847 101.866 80.5658 101.746 80.2904 101.563C79.9967 101.368 79.7534 101.098 79.5917 100.778C79.4448 100.498 79.366 100.181 79.3572 99.8463V95.853V95.8559C79.3572 95.8224 79.354 95.7943 79.354 95.7649C79.3488 95.6638 79.34 95.5668 79.3196 95.4714C79.2823 95.2826 79.2219 95.0987 79.1423 94.9299L79.1167 94.8863L79.0346 94.7383C78.8805 94.4871 78.6773 94.2759 78.4343 94.1128C78.149 93.9151 77.812 93.7932 77.4463 93.7671C77.4118 93.7638 77.3774 93.761 77.3446 93.761H77.2898C77.2406 93.761 77.1857 93.761 77.1381 93.7671H75.7446C76.0384 93.0479 76.2385 92.2777 76.3277 91.4712H78.0854C78.1378 91.4712 78.191 91.4712 78.2458 91.474C78.2598 91.4712 78.2747 91.4712 78.2887 91.4712H78.7485C79.1455 91.4973 79.5197 91.6045 79.8598 91.7733C80.1648 91.8936 80.4381 92.0669 80.6874 92.2944C80.9784 92.5802 81.2073 92.9398 81.3678 93.3798C81.3702 93.3822 81.373 93.3883 81.373 93.3973C81.5302 93.7699 81.6123 94.1818 81.6123 94.6164Z" fill="#0D5A99"/>
<path d="M52.5512 91.4121L52.3191 91.7668L50.0436 95.2761L49.1588 96.6404L49.9952 97.9166C48.1303 97.4603 46.5219 96.3281 45.429 94.7873L44.8131 93.7606L43.6133 91.7701L43.396 91.4121H44.7671C45.501 91.4121 46.1433 91.8023 46.5123 92.389L46.6172 92.5811L47.9622 95.0136L49.3645 92.5036C49.5242 92.21 49.7491 91.9564 50.0212 91.7701C50.0264 91.7668 50.0352 91.7611 50.0436 91.7583C50.3698 91.5381 50.7568 91.4121 51.175 91.4121H52.5512Z" fill="#0D5A99"/>
<path d="M58.5945 87.5H60.8496V89.3278H58.5945V87.5Z" fill="#0D5A99"/>
<path d="M73.2811 95.8783V93.7671H71.6107C71.5631 93.7638 71.5115 93.7614 71.4623 93.7614H71.4538C71.4038 93.7614 71.3514 93.7614 71.2998 93.7671C71.2882 93.7671 71.2762 93.7699 71.2638 93.7699C70.9184 93.8022 70.597 93.9179 70.3233 94.1043C70.3181 94.1075 70.3085 94.1132 70.3001 94.1177C70.0296 94.3041 69.8038 94.5581 69.6434 94.8508C69.5473 95.0286 69.4785 95.2239 69.4349 95.422C69.4057 95.5639 69.3872 95.7123 69.3872 95.8636C69.3872 95.9195 69.3932 95.9717 69.3964 96.0206H69.3872V97.9964C68.8586 98.1122 68.3107 98.1709 67.7448 98.1709C67.5399 98.1709 67.3346 98.1648 67.1313 98.1473V94.8745C67.1313 94.8247 67.1337 94.7795 67.1337 94.7322C67.1337 94.6914 67.1313 94.6531 67.1313 94.6164C67.1313 94.1822 67.215 93.7699 67.3727 93.3973C67.3727 93.3887 67.3775 93.3826 67.3775 93.3798C67.5367 92.9398 67.7661 92.5802 68.0566 92.2944C68.3043 92.0669 68.5829 91.894 68.8854 91.7737C69.2244 91.6049 69.6005 91.4977 69.9983 91.4712H70.455C70.4718 91.4712 70.4862 91.4712 70.501 91.474C70.5554 91.4712 70.6054 91.4712 70.6571 91.4712H75.5658C75.2749 93.1849 74.4561 94.7146 73.2811 95.8783Z" fill="#0D5A99"/>
</svg>
